<svg viewBox="0 0 256 256" width="30" height="30" xml:space="preserve" xmlns="http://www.w3.org/2000/svg"><path d="M80.4 177.5c.5 1.3 1.3 2.4 2.3 3.4s2.2 1.8 3.5 2.3 2.7.8 4.1.8 2.8-.3 4.1-.8 2.5-1.3 3.5-2.3 1.8-2.1 2.3-3.4.7-2.6.7-4V124c.2-1.8 1-3.4 2.3-4.6s3.1-1.9 4.9-2h19.5v38.3c-.1 7.3 2.7 14.4 7.9 19.7s12.4 8.5 20 8.9l17.8.1c2.8-.1 5.5-1.3 7.4-3.2 2-2 3-4.6 3-7.3s-1.1-5.3-3-7.3-4.6-3.1-7.4-3.2l-17.4-.1c-1 0-2-.2-2.8-.6-.9-.4-1.7-.9-2.4-1.6s-1.2-1.5-1.5-2.4-.5-1.8-.5-2.8v-38.5H161c1.4 0 2.8-.3 4-.8s2.4-1.3 3.4-2.3c2-2 3.1-4.7 3.1-7.5 0-2.7-1-5.4-3-7.3s-4.7-3.1-7.5-3.2h-12.4v-20c.1-1.4-.2-2.7-.7-4s-1.3-2.5-2.2-3.4c-1-1-2.2-1.8-3.5-2.3s-2.7-.8-4.1-.8-2.8.3-4.1.8-2.5 1.3-3.5 2.3-1.7 2.2-2.2 3.4c-.5 1.3-.7 2.6-.7 4v20h-19.5c-7.7.2-14.9 3.2-20.2 8.5s-8.2 12.4-8.1 19.8v48.9c-.1 1.4.1 2.8.6 4z" style="fill:#fff"/><path d="M128 25.5C71.4 25.5 25.5 71.4 25.5 128S71.4 230.5 128 230.5 230.5 184.6 230.5 128 184.6 25.5 128 25.5zm52.6 155.6c-2 2-4.6 3.1-7.4 3.2l-17.8-.1c-7.6-.4-14.8-3.5-20-8.9-5.2-5.3-8-12.4-7.9-19.7v-38.3H108c-1.8.1-3.6.8-4.9 2s-2.1 2.9-2.3 4.6v49.5c.1 1.4-.2 2.7-.7 4s-1.3 2.4-2.3 3.4-2.2 1.8-3.5 2.3-2.7.8-4.1.8-2.8-.3-4.1-.8-2.5-1.3-3.5-2.3-1.8-2.1-2.3-3.4-.7-2.6-.7-4v-48.9c-.1-7.4 2.8-14.5 8.1-19.8s12.6-8.4 20.2-8.5h19.5v-20c-.1-1.4.2-2.7.7-4s1.3-2.5 2.2-3.4c1-1 2.2-1.8 3.5-2.3s2.7-.8 4.1-.8 2.8.3 4.1.8 2.5 1.3 3.5 2.3 1.7 2.2 2.2 3.4c.5 1.3.7 2.6.7 4v20h12.4c2.8.1 5.6 1.2 7.5 3.2s3.1 4.6 3 7.3c0 2.8-1.1 5.5-3.1 7.5-1 1-2.1 1.7-3.4 2.3s-2.6.8-4 .8h-12.5v38.5c0 .9.1 1.9.5 2.8.3.9.9 1.7 1.5 2.4.7.7 1.5 1.2 2.4 1.6s1.9.6 2.8.6l17.4.1c2.8.1 5.5 1.3 7.4 3.2s3 4.6 3 7.3c.3 2.8-.8 5.4-2.7 7.3z"/></svg>
